<svg xmlns="http://www.w3.org/2000/svg" xml:space="preserve" width="2048px" height="2048px" style="shape-rendering:geometricPrecision; text-rendering:geometricPrecision; image-rendering:optimizeQuality; fill-rule:evenodd; clip-rule:evenodd"
viewBox="0 0 2048 2048"
 xmlns:xlink="http://www.w3.org/1999/xlink">
 <defs>
  <style type="text/css">
   <![CDATA[
    .fil5 {fill:none}
    .fil1 {fill:#40C4FF}
    .fil2 {fill:#5C6BC0}
    .fil3 {fill:#7CB342}
    .fil4 {fill:#00695C;fill-rule:nonzero}
    .fil0 {fill:#00897B;fill-rule:nonzero}
   ]]>
  </style>
 </defs>
 <g id="Layer_x0020_1">
  <metadata id="CorelCorpID_0Corel-Layer"/>
  <g id="_363991056">
   <path id="_363991896" class="fil0" d="M942.305 1628.65c26.2028,0 47.4461,-21.2433 47.4461,-47.4461 0,-26.2028 -21.2433,-47.4461 -47.4461,-47.4461 -163.318,0 -311.175,-66.1961 -418.196,-173.217 -107.022,-107.022 -173.219,-254.877 -173.219,-418.197 0,-163.318 66.1961,-311.175 173.218,-418.197 107.021,-107.022 254.879,-173.217 418.197,-173.217 163.318,0 311.173,66.1961 418.196,173.218 107.022,107.022 173.217,254.877 173.217,418.196 0,26.2028 21.2433,47.4461 47.4461,47.4461 26.2028,0 47.4461,-21.2433 47.4461,-47.4461 0,-189.513 -76.819,-361.089 -201.017,-485.288 -124.198,-124.198 -295.775,-201.018 -485.288,-201.018 -189.513,0 -361.092,76.819 -485.289,201.018 -124.198,124.198 -201.017,295.775 -201.017,485.288 0,189.514 76.8201,361.09 201.018,485.288 124.198,124.198 295.775,201.018 485.288,201.018z"/>
   <polygon id="_363990744" class="fil1" points="766.369,610.008 862.244,665.363 958.12,720.716 958.12,831.423 958.12,942.131 862.244,997.484 766.369,1052.84 670.495,997.484 574.619,942.131 574.619,831.423 574.619,720.716 670.495,665.363 "/>
   <polygon id="_363990792" class="fil2" points="1149.87,610.008 1054,665.363 958.12,720.716 958.12,831.423 958.12,942.131 1054,997.484 1149.87,1052.84 1245.75,997.484 1341.62,942.131 1341.62,831.423 1341.62,720.716 1245.75,665.363 "/>
   <polygon id="_363990600" class="fil3" points="958.122,1384.71 862.247,1329.35 766.371,1274 766.371,1163.29 766.371,1052.59 862.247,997.231 958.122,941.877 1054,997.231 1149.87,1052.59 1149.87,1163.29 1149.87,1274 1054,1329.35 "/>
   <path id="_363991248" class="fil0" d="M1628.57 933.623c0,-26.2028 -21.2433,-47.4461 -47.4461,-47.4461 -26.2016,0 -47.4449,21.2433 -47.4449,47.4461l0 507.935c0,26.2016 21.2433,47.4449 47.4449,47.4449 26.2028,0 47.4461,-21.2433 47.4461,-47.4449l0 -507.935z"/>
   <polygon id="_363991224" class="fil4" points="1792,1297.78 1614.68,1475.1 1581.13,1508.65 1547.58,1475.1 1370.26,1297.78 "/>
   <path id="_363990816" class="fil0" d="M931.534 1533.64c-26.2028,0 -47.4461,21.2433 -47.4461,47.4461 0,26.2028 21.2433,47.4461 47.4461,47.4461l507.936 0c26.2028,0 47.4461,-21.2433 47.4461,-47.4461 0,-26.2028 -21.2433,-47.4461 -47.4461,-47.4461l-507.936 0z"/>
   <polygon id="_363990960" class="fil4" points="1295.69,1370.22 1473.01,1547.54 1506.56,1581.09 1473.01,1614.64 1295.69,1791.96 "/>
  </g>
 </g>
 <rect class="fil5" width="2048" height="2048"/>
</svg>
